<?xml version="1.0" encoding="UTF-8"?>
<!-- Generator: Adobe Illustrator 26.0.1, SVG Export Plug-In . SVG Version: 6.00 Build 0)  -->
<svg xmlns="http://www.w3.org/2000/svg" xmlns:xlink="http://www.w3.org/1999/xlink" version="1.1" id="Capa_1" x="0px" y="0px" viewBox="0 0 512 512" style="enable-background:new 0 0 512 512;" xml:space="preserve" width="512" height="512">
<g>
	<g>
		<path style="fill-rule:evenodd;clip-rule:evenodd;" d="M482.741,130.696H29.252C13.123,130.696,0,143.826,0,159.968v192.065    c0,16.141,13.123,29.271,29.252,29.271h453.489c16.134,0,29.259-13.13,29.259-29.271V159.968    C512,143.826,498.875,130.696,482.741,130.696z M482.741,135.878c13.32,0,24.08,10.772,24.08,24.09v192.065    c0,13.325-10.76,24.09-24.08,24.09H29.252c-13.311,0-24.075-10.765-24.075-24.09V159.968c0-13.318,10.765-24.09,24.075-24.09    H482.741z"/>
	</g>
	<rect x="73.722" y="183.768" style="fill-rule:evenodd;clip-rule:evenodd;" width="37.885" height="146.165"/>
	<path style="fill-rule:evenodd;clip-rule:evenodd;" d="M192.477,183.768l-8.779,68.302l-5.384-37.125   c-1.627-11.9-3.113-22.319-4.602-31.177h-49.145v146.165h33.213l0.141-96.494l13.951,96.494h23.652l13.311-98.618l0.073,98.618   h33.135V183.768H192.477z"/>
	<path style="fill-rule:evenodd;clip-rule:evenodd;" d="M301.321,210.128c1.481,0.853,2.478,2.2,2.906,4.109   c0.421,1.842,0.636,6.09,0.636,12.682v56.602c0,9.783-0.636,15.734-1.915,17.934c-1.274,2.192-4.599,3.252-10.056,3.252v-95.922   C297,208.786,299.828,209.207,301.321,210.128z M300.963,329.933c9.065,0,15.864-0.497,20.399-1.488   c4.453-0.989,8.285-2.689,11.327-5.242c3.043-2.485,5.242-5.951,6.446-10.343c1.272-4.395,1.978-13.174,1.978-26.285v-51.296   c0-13.817-0.568-23.094-1.342-27.842c-0.85-4.677-2.974-9.001-6.375-12.818c-3.328-3.834-8.285-6.594-14.731-8.29   c-6.446-1.703-17.067-2.56-35.405-2.56h-28.258v146.165H300.963z"/>
	<path style="fill-rule:evenodd;clip-rule:evenodd;" d="M403.367,294.51c0,7.013-0.361,11.547-1.067,13.386   c-0.704,1.849-3.754,2.76-6.092,2.76c-2.26,0-3.754-0.843-4.529-2.682c-0.704-1.773-1.133-5.883-1.133-12.331v-38.611   c0-6.665,0.351-10.775,0.994-12.475c0.707-1.627,2.192-2.477,4.385-2.477c2.339,0,5.45,0.996,6.239,2.836   c0.775,1.91,1.203,5.951,1.203,12.117V294.51z M354.003,183.768v146.165h34.136l2.407-9.284c3.043,3.756,6.444,6.516,10.193,8.434   c3.761,1.839,9.281,2.76,13.595,2.76c5.954,0,11.189-1.557,15.51-4.746c4.392-3.113,7.16-6.872,8.292-11.125   c1.203-4.319,1.771-10.836,1.771-19.554v-41.013c0-8.854-0.146-14.599-0.568-17.288c-1.051-6.71-5.737-12.27-11.903-14.885   c-3.754-1.557-8.068-2.339-13.104-2.339c-4.314,0-9.91,0.86-13.664,2.631c-3.681,1.695-7.082,4.317-10.124,7.79v-47.547H354.003z"/>
</g>















</svg>
