<svg id="Glyph" height="512" viewBox="0 0 64 64" width="512" xmlns="http://www.w3.org/2000/svg"><g fill="rgb(0,0,0)"><path d="m54.25 46.73c-5.7-3.82-5.99-11.23-5.99-11.28v-8.5a16.25818 16.25818 0 0 0 -12.09-15.72c-10.09131-2.82153-20.63984 5.23743-20.42983 15.72019l-.00017 8.46981c0 .08-.26 7.47-5.99 11.31a3.668 3.668 0 0 0 2.07 6.71h40.36a3.68514 3.68514 0 0 0 2.07-6.71z"/><path d="m25.18 55.44c2.7161 6.02123 11.66544 6.01933 14.38-.00019z"/><path d="m29.45 8.87a18.53189 18.53189 0 0 1 7.46.5v-.64a4.74455 4.74455 0 1 0 -9.4599.54 15.4829 15.4829 0 0 1 1.9999-.4z"/><path d="m58.78711 11.56055a14.43707 14.43707 0 0 0 -8.18359-7.53418 1 1 0 0 0 -.6894 1.877 12.58231 12.58231 0 0 1 7.44806 16.08207.99984.99984 0 1 0 1.87708.68939 14.43691 14.43691 0 0 0 -.45215-11.11428z"/><path d="m47.89648 11.3916a6.6988 6.6988 0 0 1 3.97461 8.583 1.00028 1.00028 0 0 0 1.88086.68164 8.70085 8.70085 0 0 0 -5.16015-11.13964.99989.99989 0 0 0 -.69532 1.875z"/><path d="m14.08643 5.90332a1 1 0 0 0 -.68952-1.87692 14.591 14.591 0 0 0 -8.636 18.64847 1.00037 1.00037 0 0 0 1.87776-.68958 12.581 12.581 0 0 1 7.44776-16.08197z"/><path d="m10.52832 14.02148a8.6569 8.6569 0 0 0 -.2793 6.63575 1.00016 1.00016 0 1 0 1.87989-.6836 6.73013 6.73013 0 0 1 3.97467-8.582.99992.99992 0 0 0 -.69538-1.875 8.6543 8.6543 0 0 0 -4.87988 4.50485z"/></g></svg>