<svg id="Layer_2" xmlns="http://www.w3.org/2000/svg" viewBox="0 0 48 48">
  <defs>
    <style>
      .bg {
        fill: #fff;
      }

      .mark {
        fill: #000;
      }
    </style>
  </defs>
  <g id="_x2D_-production">
    <g id="logomark.square.monochrome">
      <path
        id="background"
        class="bg"
        d="M48,11.26v25.47c0,6.22-5.05,11.27-11.27,11.27H11.26c-6.22,0-11.26-5.05-11.26-11.27V11.26C0,5.04,5.04,0,11.26,0h25.47c3.32,0,6.3,1.43,8.37,3.72.47.52.89,1.08,1.25,1.68.18.29.34.59.5.89.33.68.6,1.39.79,2.14.1.37.18.76.23,1.15.09.54.13,1.11.13,1.68Z"
      />
      <g id="checkbox">
        <path
          class="mark"
          d="M13.62,17.97l7.92,7.92,1.47-1.47-7.92-7.92-1.47,1.47ZM28.01,32.37l1.47-1.46-2.16-2.16,20.32-20.32c-.19-.75-.46-1.46-.79-2.14l-22.46,22.46,3.62,3.62ZM12.92,18.67l-1.46,1.46,14.4,14.4,1.46-1.47-4.32-4.31L46.35,5.4c-.36-.6-.78-1.16-1.25-1.68l-23.56,23.56-8.62-8.61ZM47.87,9.58l-19.17,19.17,1.47,1.46,17.83-17.83v-1.12c0-.57-.04-1.14-.13-1.68ZM25.16,22.27l-7.92-7.92-1.47,1.47,7.92,7.92,1.47-1.47ZM41.32,35.12c0,3.42-2.78,6.2-6.2,6.2H12.88c-3.42,0-6.2-2.78-6.2-6.2V12.88c0-3.42,2.78-6.21,6.2-6.21h20.78v-2.07H12.88c-4.56,0-8.28,3.71-8.28,8.28v22.24c0,4.56,3.71,8.28,8.28,8.28h22.24c4.56,0,8.28-3.71,8.28-8.28v-3.51h-2.07v3.51Z"
        />
      </g>
    </g>
  </g>
</svg>
